<?xml version="1.0" standalone="no"?>
<!DOCTYPE svg PUBLIC "-//W3C//DTD SVG 20010904//EN"
 "http://www.w3.org/TR/2001/REC-SVG-20010904/DTD/svg10.dtd">
<svg version="1.0" xmlns="http://www.w3.org/2000/svg"
 width="700.000000pt" height="700.000000pt" viewBox="0 0 700.000000 700.000000"
 preserveAspectRatio="xMidYMid meet">
<metadata>
Created by potrace 1.14, written by Peter Selinger 2001-2017
</metadata>
<g transform="translate(0.000000,700.000000) scale(0.100000,-0.100000)"
fill="#000000" stroke="none">
<path d="M3335 6993 c-16 -2 -64 -10 -105 -19 -41 -8 -85 -16 -97 -19 -53 -10
-244 -80 -308 -113 -77 -39 -245 -147 -286 -184 -81 -72 -120 -110 -177 -173
l-64 -70 -191 -1 c-208 0 -315 -16 -482 -71 -269 -88 -511 -253 -695 -474 -30
-36 -62 -76 -70 -89 -8 -12 -23 -33 -33 -46 -34 -45 -134 -249 -161 -328 -29
-87 -52 -172 -60 -226 -3 -19 -9 -46 -12 -60 -4 -14 -8 -114 -8 -224 l-2 -198
-29 -26 c-304 -258 -481 -573 -540 -962 -26 -170 -8 -441 42 -620 78 -285 250
-552 485 -752 l46 -40 -3 -147 c-4 -173 6 -276 41 -416 110 -441 405 -805 813
-1004 94 -46 265 -104 356 -120 33 -6 71 -14 85 -18 14 -3 114 -7 222 -7 l197
-2 52 -58 c77 -85 156 -159 237 -221 40 -30 74 -55 77 -55 2 0 21 -12 42 -26
114 -78 329 -161 508 -196 147 -29 402 -31 550 -4 322 59 607 212 829 444 35
37 73 78 84 92 l20 25 194 1 c211 1 287 12 463 65 446 137 820 494 972 929 74
208 91 318 89 548 l-2 172 60 53 c261 226 429 517 498 859 25 129 31 373 12
503 -54 365 -223 674 -504 928 l-65 58 -1 192 c-1 106 -4 203 -8 217 -3 14 -8
39 -10 55 -8 53 -35 158 -59 230 -170 495 -590 871 -1107 989 -112 26 -140 29
-337 31 l-193 2 -57 64 c-134 148 -260 249 -423 337 -135 73 -334 142 -450
157 -30 4 -59 9 -64 13 -10 6 -324 10 -371 5z m284 -658 c30 -3 57 -8 61 -10
4 -2 22 -7 40 -10 57 -10 177 -65 253 -115 119 -79 203 -169 281 -301 53 -88
88 -121 166 -158 65 -30 158 -36 228 -16 199 57 387 50 572 -23 234 -92 420
-291 498 -532 12 -36 24 -78 26 -95 16 -99 18 -127 18 -188 -1 -81 -7 -118
-31 -217 -27 -108 -22 -183 18 -264 34 -69 76 -110 166 -161 201 -113 370
-346 410 -566 14 -73 15 -87 15 -174 0 -142 -21 -243 -76 -363 -78 -170 -185
-283 -392 -412 -104 -66 -162 -170 -157 -282 1 -35 5 -72 8 -83 3 -11 10 -38
15 -60 61 -228 9 -503 -132 -699 -131 -183 -318 -303 -546 -351 -92 -19 -284
-13 -379 13 -96 26 -198 24 -263 -5 -66 -30 -112 -75 -165 -163 -139 -230
-335 -373 -583 -424 -82 -17 -300 -16 -355 2 -16 5 -50 16 -75 23 -124 37
-269 128 -360 226 -73 78 -80 89 -138 188 -83 141 -242 206 -398 160 -32 -9
-70 -19 -84 -22 -54 -10 -238 -11 -295 -2 -366 58 -656 349 -716 719 -19 122
-13 233 21 364 25 92 20 177 -13 249 -27 60 -87 126 -138 153 -68 34 -151 97
-211 157 -269 274 -328 678 -147 1015 77 144 179 248 334 342 166 100 222 233
174 419 -42 164 -43 299 -3 453 17 67 61 176 81 199 7 8 13 19 13 24 0 4 19
33 41 63 171 226 427 355 699 353 100 -1 130 -4 230 -30 197 -51 314 3 440
203 144 231 387 383 640 403 36 3 66 6 67 7 4 3 83 -2 142 -9z"/>
<path d="M4690 4678 c-51 -19 -112 -77 -840 -804 l-785 -784 -342 340 c-389
388 -397 394 -533 394 -130 0 -234 -65 -291 -180 -54 -108 -45 -232 22 -329
15 -22 238 -250 496 -506 443 -442 471 -468 528 -488 98 -37 200 -28 293 25
18 11 441 429 941 929 737 738 913 919 932 960 33 72 33 209 0 278 -29 60 -99
129 -160 158 -66 32 -186 35 -261 7z"/>
</g>
</svg>
